<svg xmlns="http://www.w3.org/2000/svg" width="760" height="244" viewBox="0 0 760 244" font-family="ui-monospace, SFMono-Regular, Menlo, Consolas, monospace" font-size="14">
  <defs>
    <filter id="sh" x="-20%" y="-20%" width="140%" height="140%"><feDropShadow dx="0" dy="6" stdDeviation="10" flood-color="#000000" flood-opacity="0.35"/></filter>
    <clipPath id="winu"><rect x="10" y="8" width="740" height="224" rx="10"/></clipPath>
  </defs>
  <rect x="10" y="8" width="740" height="224" rx="10" fill="#0d1117" stroke="#30363d" filter="url(#sh)"/>
  <circle cx="36" cy="30" r="6" fill="#ff5f56"/><circle cx="58" cy="30" r="6" fill="#ffbd2e"/><circle cx="80" cy="30" r="6" fill="#27c93f"/>
  <text x="380" y="35" text-anchor="middle" fill="#6e7681" font-size="12">Usage</text>
  <line x1="10" y1="50" x2="750" y2="50" stroke="#21262d"/>
  <g clip-path="url(#winu)">
    <rect x="10" y="58" width="740" height="34" fill="#161b22"/>
    <line x1="210" y1="58" x2="210" y2="232" stroke="#21262d"/>
    <line x1="10" y1="92" x2="750" y2="92" stroke="#21262d"/>
    <line x1="10" y1="126" x2="750" y2="126" stroke="#21262d"/>
    <line x1="10" y1="160" x2="750" y2="160" stroke="#21262d"/>
    <line x1="10" y1="194" x2="750" y2="194" stroke="#21262d"/>
  </g>
  <g font-family="system-ui, -apple-system, sans-serif" font-weight="600" fill="#c9d1d9">
    <text x="26" y="80">Command</text>
    <text x="228" y="80">Result</text>
  </g>
  <g fill="#79c0ff">
    <text x="26" y="114">sprout notes</text>
    <text x="26" y="148">sprout my-api py</text>
    <text x="26" y="182">sprout landing html</text>
    <text x="26" y="216">sprout engine cpp</text>
  </g>
  <g font-family="system-ui, -apple-system, sans-serif" fill="#c9d1d9">
    <text x="228" y="114">Creates the folder only (no template) and opens it.</text>
    <text x="228" y="148">Folder + Python starter + README.md.</text>
    <text x="228" y="182">Folder + index.html / style.css / script.js.</text>
    <text x="228" y="216">Folder + main.cpp starter.</text>
  </g>
  <rect x="10" y="8" width="740" height="224" rx="10" fill="none" stroke="#30363d"/>
</svg>
